<?xml version="1.0" encoding="UTF-8"?>
<svg xmlns="http://www.w3.org/2000/svg" xmlns:xlink="http://www.w3.org/1999/xlink" id="Capa_1" x="0px" y="0px" viewBox="0 0 850.4 283.5" style="enable-background:new 0 0 850.4 283.5;" xml:space="preserve">
  <style type="text/css">	.st0{fill:#FFFFFF;}</style>
  <g>	<polygon class="st0" points="497.7,149.6 433,150.2 437.9,142.9 442.8,135.2 449.9,124.2 454.7,131.6 485.6,131.7 466.1,102.8   433.5,102.8 411.9,135 404,146.9 383.4,177.7 415.5,177.7 422.8,166.3 477.2,166.3 484.5,177.7 516.7,177.7  "></polygon>	<path class="st0" d="M369.5,116.4c-5-5.2-12.4-9.2-22.1-11.9s-22-4-36.9-4c-11.3,0-21.4,0.7-30.4,2c-9,1.3-16.6,3.5-22.9,6.6  s-11.1,7.2-14.5,12.4c-2.4,3.7-3.9,8-4.6,13c-0.3,2-0.5,4.1-0.5,6.4c0,2.7,0.3,5.2,0.7,7.6c0.8,4.4,2.2,8.3,4.3,11.6  c3.4,5.1,8.2,9.1,14.5,12c6.3,2.9,14,5,22.9,6.2c9,1.2,19.1,1.8,30.4,1.8c14.8,0,27.1-1.2,36.8-3.8c9.7-2.5,17-6.2,22-11.2  c4-4,6.4-8.8,7.4-14.3l-33.7,0.3c-0.4,0.4-0.7,0.7-1.2,1.1c-2.5,1.8-6.2,3.1-11.2,4.1s-11.7,1.5-20.2,1.5c-10,0-18.1-0.6-24.3-1.8  c-6.2-1.2-10.8-3-13.7-5.5c-0.8-0.7-1.2-1.6-1.8-2.4c-1.5-2.1-2.5-4.4-2.5-7.3c0-2.4,0.5-4.4,1.4-6.3c0.7-1.6,1.7-3,3-4.2  c2.9-2.7,7.5-4.6,13.7-5.8c6.2-1.2,14.3-1.8,24.3-1.8c8.5,0,15.2,0.6,20.2,1.6c5,1.1,8.7,2.6,11.2,4.5c0.9,0.7,1.7,1.5,2.4,2.3  l32.6,0.1C375.9,125.6,373.5,120.6,369.5,116.4z"></path>	<path class="st0" d="M652.5,114.2c-3.9-3.5-9.3-6.3-16.1-8.3c-6.9-2-15.5-3-26.1-3h-84.2v74.9h84.2c10,0,18.3-1,25.1-3  c6.7-2,12.2-4.8,16.3-8.3c4.1-3.5,7-7.5,8.8-12c1.8-4.5,2.7-9.2,2.7-14.1c0-4.9-0.8-9.6-2.4-14.1  C659.1,121.7,656.4,117.7,652.5,114.2z M631.5,146.4c-0.8,1.8-2.2,3.2-4,4.4c-1.8,1.2-4.3,2.1-7.3,2.6c-3,0.6-6.7,0.9-11.1,0.9  h-53.8v-28.1h53.8c4.4,0,8.1,0.3,11.1,0.9s5.5,1.5,7.3,2.6s3.2,2.6,4,4.4c0.8,1.8,1.2,3.8,1.2,6.1  C632.7,142.6,632.3,144.6,631.5,146.4z"></path>	<path class="st0" d="M234.4,134.4c-9.6,0-19.2-0.1-28.8-0.1c-0.3,0-0.5,0-0.8,0c-3.3,0-3.9-0.7-3.4-4c0.2-1.3,0.5-2.5,0.6-3.8  c0.2-2-0.5-2.6-2.4-2.2c-2.3,0.6-4.5,1.4-6.8,1.9c-5.9,1.3-11.9,2.6-17.9,3.9c-1.1,0.2-1.7,0.1-1.9-1.1c-0.4-2-1.1-4.1-1.2-6.1  c-0.1-13.3-0.1-26.7,0-40c0-1.6,0.7-3.2,1.3-4.6c0.6-1.5,1-2.9,0.1-4.4c-0.9-1.6-2.5-1.9-4.2-1.8c-1.4,0.1-2.7,0.9-2.9,2.4  c-0.2,1.1,0.2,2.2,0.4,3.3c0.4,1.9,1.3,3.8,1.3,5.7c0,13.5-0.1,26.9-0.3,40.4c-0.1,3.3-0.8,6.5-1.2,10.1  c-5.2,0.2-10.3,0.5-15.4,0.6c-6.9,0.2-13.9,0.2-20.8,0.4c-17.2,0.4-34.4,0.9-51.6,1.3c-3.6,0.1-7.1-0.2-10.7-0.2  c-2.6,0-5.2,0.4-7.7,0.2c-1.8-0.1-3.6-0.8-5.3-1.5c-3.8-1.6-7.5-1.7-11.2,0.2c-2.9,1.5-4.8,4.6-4.5,7.8c0.3,4.2,2.2,6.7,5.7,8  c3.8,1.4,7.4,0.8,10.9-1c3.2-1.6,6.6-1.9,10.2-1.8c4.2,0.1,8.5-0.2,12.7-0.2c5.7,0.1,11.3,0.4,17,0.5c10.4,0.2,20.8,0.2,31.1,0.3  c10.7,0.2,21.4,0.4,32.1,0.6c2.5,0.1,4.9,0,7.6,0c0.5,4.4,1.3,8.5,1.5,12.6c0.5,13.1,0.7,26.3,1,39.4c0,1.2-0.5,2.4-1,3.5  c-0.8,1.5-1.3,3.1-0.2,4.3c0.9,0.9,2.5,1.4,3.8,1.6c1.7,0.2,2.9-0.9,3.5-2.5c0.2-0.7,0.2-1.8-0.2-2.4c-2.7-3.5-2-7.6-2.2-11.4  c-0.3-9.2-0.3-18.5-0.4-27.7c0-3.2-0.1-6.4-0.1-9.6c0-0.6,0.2-1.3,0.3-1.9c0.4-1.8,1.2-2.5,3.2-2c7.5,1.9,15.1,3.5,22.6,5.2  c0.1,0,0.2,0.1,0.4,0.1c3.5,0.9,4.1,0.4,3.6-3.3c-0.2-1.5-0.3-3-0.4-4.6c-0.1-1.4,0.7-2.1,2.1-2.1c10.1-0.1,20.3-0.2,30.4-0.2  c-0.4-2.7-0.7-5.2-0.7-7.6C234,138.6,234.2,136.5,234.4,134.4z"></path>	<path class="st0" d="M447.2,135.2l-6.4,9.9l-0.9,1.4c14.3-0.1,28.7-0.3,43-0.4c13.2-0.1,26.3-0.2,39.5-0.4v-10.3  C497.3,135.4,472.2,135.3,447.2,135.2z"></path>	<path class="st0" d="M358.5,134.9c-28.2-0.1-56.4-0.2-84.6-0.3c-0.3,0.5-0.8,0.9-1,1.5c-0.7,1.5-1,3.1-1,4.8c0,1.8,0.6,3.4,1.9,5.2  l0.6,0.9c0.2,0.4,0.5,0.7,0.7,0.9c0.1,0.1,0.4,0.2,0.5,0.3c20.5-0.2,41.1-0.4,61.6-0.6c20.9-0.2,41.7-0.4,62.6-0.6l8-11.9  C391.2,135,374.9,134.9,358.5,134.9z"></path>	<path class="st0" d="M628.4,138.9c0-2.9-0.1-3.1-3.2-3.1c-7.1,0-14.2,0-21.2-0.1c-15-0.1-30-0.1-45-0.2v9.8  c19.1-0.2,38.2-0.4,57.3-0.5c3.2,0,6.4-0.1,9.6-0.1c2.2-0.1,2.5-0.4,2.6-2.6C628.4,141,628.4,139.9,628.4,138.9z"></path>	<polygon class="st0" points="782.4,102.8 782.4,128.7 707.6,128.7 707.6,102.8 678.3,102.8 678.3,177.7 707.6,177.7 707.6,150.9   782.4,150.9 782.4,177.7 811.7,177.7 811.7,102.8  "></polygon>	<path class="st0" d="M171.2,206.8c0,0,0.1,0,0.1,0C171.3,206.8,171.3,206.8,171.2,206.8C171.3,206.7,171.3,206.8,171.2,206.8z"></path>	<path class="st0" d="M170.2,75.7c-0.1-0.1-0.1-0.1-0.1-0.1c-0.1,0,0,0.3,0.1,0.6C170.2,75.9,170.2,75.8,170.2,75.7z"></path></g>
</svg>
